<?xml version="1.0" encoding="iso-8859-1"?>
<!-- Generator: Adobe Illustrator 19.0.0, SVG Export Plug-In . SVG Version: 6.00 Build 0)  -->
<svg version="1.1" id="Layer_1" xmlns="http://www.w3.org/2000/svg" xmlns:xlink="http://www.w3.org/1999/xlink" x="0px" y="0px"
	 viewBox="0 0 512 512" style="enable-background:new 0 0 512 512;" xml:space="preserve">
<g>
	<g>
		<path d="M463.509,156.527L362.512,15.13C355.745,5.656,344.755,0,333.111,0H77.891C57.969,0,41.761,16.207,41.761,36.129v439.741
			c0,19.922,16.207,36.129,36.129,36.129h356.219c19.922,0,36.129-16.207,36.129-36.129V177.527
			C470.239,169.955,467.912,162.695,463.509,156.527z M330.351,40.743h0.386l82.444,115.423l-82.853-0.037L330.351,40.743z
			 M429.495,471.257H82.504V40.743h207.105l-0.027,133.295c0,0.765,0.05,1.516,0.132,2.258c0,0.063-0.01,0.122-0.01,0.185
			c-0.005,11.25,9.111,20.375,20.362,20.381l119.429,0.054V471.257z"/>
	</g>
</g>
<g>
	<g>
		<path d="M205.411,80.127h-65.188c-11.25,0-20.371,9.121-20.371,20.371s9.121,20.371,20.371,20.371h65.188
			c11.25,0,20.371-9.121,20.371-20.371S216.662,80.127,205.411,80.127z"/>
	</g>
</g>
<g>
	<g>
		<path d="M371.098,241.74H140.223c-11.25,0-20.371,9.121-20.371,20.371s9.121,20.371,20.371,20.371h230.875
			c11.25,0,20.371-9.121,20.371-20.371S382.349,241.74,371.098,241.74z"/>
	</g>
</g>
<g>
	<g>
		<path d="M371.098,308.286H140.223c-11.25,0-20.371,9.121-20.371,20.371c0,11.25,9.121,20.371,20.371,20.371h230.875
			c11.25,0,20.371-9.121,20.371-20.371C391.47,317.407,382.349,308.286,371.098,308.286z"/>
	</g>
</g>
<g>
	<g>
		<path d="M371.098,377.549H140.223c-11.25,0-20.371,9.121-20.371,20.371s9.121,20.371,20.371,20.371h230.875
			c11.25,0,20.371-9.121,20.371-20.371S382.349,377.549,371.098,377.549z"/>
	</g>
</g>
<g>
</g>
<g>
</g>
<g>
</g>
<g>
</g>
<g>
</g>
<g>
</g>
<g>
</g>
<g>
</g>
<g>
</g>
<g>
</g>
<g>
</g>
<g>
</g>
<g>
</g>
<g>
</g>
<g>
</g>
</svg>
