<svg height="692pt" viewBox="-22 -107 692.5015 692" width="692pt" xmlns="http://www.w3.org/2000/svg"><path d="m307.234375 471.414062h-191.578125c-5.421875 0-9.972656-4.074218-10.578125-9.464843l-6.917969-62.039063-14.710937 63.273438c-1.117188 4.824218-5.414063 8.230468-10.363281 8.230468h-63.855469c-3.269531 0-6.347657-1.496093-8.371094-4.066406-2.015625-2.566406-2.742187-5.921875-1.976563-9.09375l39.269532-161.402344c20.941406-69.847656 88.367187-116.117187 160.558594-110.585937 170.785156 13.144531 294.613281 15.503906 348.617187 6.648437 14.320313-2.3125 28.769531 3.949219 36.851563 16.058594 5.988281 8.988282 7.785156 20.113282 4.945312 30.53125-2.804688 10.285156-9.90625 18.84375-19.464844 23.472656-42.167968 20.382813-127.90625 52.785157-236.324218 46.21875l-15.519532 152.65625c-.546875 5.429688-5.125 9.5625-10.582031 9.5625zm-182.058594-21.292968h172.441407l15.589843-153.367188c.589844-5.765625 5.589844-10.15625 11.476563-9.519531 108.324218 8.976563 194.15625-23.335937 235.707031-43.425781 4.085937-1.976563 6.992187-5.496094 8.203125-9.914063 1.222656-4.484375.441406-9.257812-2.121094-13.121093-3.4375-5.160157-9.527344-7.910157-15.683594-6.851563-71.386718 11.65625-231.734374 2.941406-353.722656-6.441406-62.121094-4.828125-120.445312 35.136719-138.371094 94.933593l-35.925781 147.707032h41.871094l26.828125-115.527344c1.167969-5.046875 5.945312-8.511719 10.984375-8.207031 5.179687.296875 9.378906 4.285156 9.960937 9.429687zm0 0"/><path d="m209.429688 408.679688c-3.175782 0-6.1875-1.414063-8.203126-3.867188l-50.789062-61.476562c-9.703125-11.71875-12.089844-27.832032-6.261719-42.050782 5.609375-13.703125 17.597657-22.753906 32.03125-24.230468 12.066407-1.136719 24.113281 2.53125 33.21875 10.0625 9.101563-7.53125 21.378907-11.199219 33.1875-10.0625 14.46875 1.484374 26.449219 10.527343 32.066407 24.230468 5.828124 14.21875 3.4375 30.324219-6.261719 42.050782l-50.789063 61.476562c-2.007812 2.453125-5.027344 3.867188-8.199218 3.867188zm-28.621094-110.566407c-.828125 0-1.648438.042969-2.46875.121094-9.328125.957031-13.226563 8.101563-14.472656 11.125-2.226563 5.4375-2.621094 13.65625 2.96875 20.425781l42.59375 51.539063 42.589843-51.539063c5.601563-6.769531 5.195313-14.988281 2.976563-20.425781-1.25-3.023437-5.144532-10.167969-14.507813-11.125-8.21875-.867187-17.308593 3.152344-22.191406 10.503906-3.945313 5.925781-13.78125 5.925781-17.734375 0-4.417969-6.648437-11.804688-10.625-19.753906-10.625zm0 0"/><path d="m225.871094 171.386719c-49.0625 0-88.976563-39.917969-88.976563-88.984375s39.914063-88.980469 88.976563-88.980469c49.066406 0 88.984375 39.914063 88.984375 88.980469s-39.917969 88.984375-88.984375 88.984375zm0-156.683594c-37.324219 0-67.691406 30.375-67.691406 67.699219 0 37.328125 30.367187 67.699218 67.691406 67.699218 37.332031 0 67.703125-30.371093 67.703125-67.699218 0-37.324219-30.371094-67.699219-67.703125-67.699219zm0 0"/><path d="m441.308594 181.308594c-43.738282 0-79.320313-35.582032-79.320313-79.316406 0-43.746094 35.582031-79.332032 79.320313-79.332032 43.742187 0 79.324218 35.585938 79.324218 79.332032 0 43.734374-35.582031 79.316406-79.324218 79.316406zm0-137.367188c-32 0-58.039063 26.035156-58.039063 58.050782 0 31.996093 26.039063 58.035156 58.039063 58.035156 32.007812 0 58.042968-26.039063 58.042968-58.035156 0-32.015626-26.035156-58.050782-58.042968-58.050782zm0 0"/><path d="m637.160156 471.414062h-78.335937c-4.148438 0-7.925781-2.414062-9.660157-6.171874l-18.871093-40.757813v36.285156c0 5.882813-4.761719 10.644531-10.644531 10.644531h-169.84375c-3.019532 0-5.898438-1.277343-7.917969-3.519531-2.023438-2.25-2.988281-5.246093-2.671875-8.246093l13.171875-123.761719c.578125-5.414063 5.136719-9.519531 10.578125-9.519531 1.28125 0 128.886718-.660157 216.683594-50.824219 2.828124-1.625 6.238281-1.871094 9.242187-.632813 3.023437 1.203125 5.320313 3.722656 6.246094 6.847656l52.230469 175.992188c.953124 3.210938.332031 6.691406-1.667969 9.382812-2.023438 2.691407-5.1875 4.28125-8.539063 4.28125zm-71.542968-21.292968h57.277343l-44.445312-149.753906c-77.765625 39.683593-175.140625 46.066406-205.890625 47.082031l-10.917969 102.671875h147.367187v-73.949219c0-4.992187 3.472657-9.3125 8.359376-10.386719 4.835937-1.054687 9.839843 1.390625 11.9375 5.925782zm0 0"/></svg>