<?xml version="1.0" encoding="iso-8859-1"?>
<!-- Generator: Adobe Illustrator 19.0.0, SVG Export Plug-In . SVG Version: 6.00 Build 0)  -->
<svg version="1.1" id="Capa_1" xmlns="http://www.w3.org/2000/svg" xmlns:xlink="http://www.w3.org/1999/xlink" x="0px" y="0px"
	 viewBox="0 0 512 512" style="enable-background:new 0 0 512 512;" xml:space="preserve">
<g>
	<g>
		<path d="M504.864,162.688l-240-160c-5.376-3.584-12.384-3.584-17.76,0l-240,160C2.656,165.664,0,170.656,0,176v64.288v0.032V480
			c0,17.632,14.368,32,32,32h448c17.632,0,32-14.368,32-32V240.32v-0.032V176C512,170.656,509.344,165.664,504.864,162.688z
			 M32,184.576L256,35.232l224,149.344v44.608l-224,89.6l-224-89.6V184.576z M480,496v-16H32V263.648l218.048,87.232
			c1.92,0.736,3.936,1.12,5.952,1.12s4.032-0.384,5.952-1.152L480,263.648V480c0,0,0,0,0.032,0L480,496z"/>
	</g>
</g>
<g>
</g>
<g>
</g>
<g>
</g>
<g>
</g>
<g>
</g>
<g>
</g>
<g>
</g>
<g>
</g>
<g>
</g>
<g>
</g>
<g>
</g>
<g>
</g>
<g>
</g>
<g>
</g>
<g>
</g>
</svg>
