<?xml version="1.0" encoding="iso-8859-1"?>
<!-- Generator: Adobe Illustrator 19.0.0, SVG Export Plug-In . SVG Version: 6.00 Build 0)  -->
<svg version="1.1" id="Capa_1" xmlns="http://www.w3.org/2000/svg" xmlns:xlink="http://www.w3.org/1999/xlink" x="0px" y="0px"
	 viewBox="0 0 512 512" style="enable-background:new 0 0 512 512;" xml:space="preserve">
<path style="fill:#303C42;" d="M469.333,64H42.667C19.135,64,0,83.135,0,106.667v298.667C0,428.865,19.135,448,42.667,448h426.667
	C492.865,448,512,428.865,512,405.333V106.667C512,83.135,492.865,64,469.333,64z"/>
<path style="fill:#F2F2F2;" d="M320.322,255.225c55.418-50.393,140.868-128.57,169.151-154.456c0.564,1.91,1.194,3.807,1.194,5.897
	v298.667c0,1.971-0.624,3.746-1.126,5.56C461.033,383.706,375.556,302.667,320.322,255.225z"/>
<path style="fill:#FAFAFA;" d="M469.333,85.333c1.572,0,2.957,0.573,4.432,0.897c-36.939,33.807-159.423,145.859-202.286,184.478
	c-3.354,3.021-8.76,6.625-15.479,6.625s-12.125-3.604-15.49-6.635C197.652,232.085,75.161,120.027,38.228,86.232
	c1.478-0.324,2.866-0.898,4.439-0.898H469.333z"/>
<path style="fill:#F2F2F2;" d="M22.46,410.893c-0.503-1.814-1.126-3.589-1.126-5.56V106.667c0-2.09,0.63-3.986,1.194-5.896
	c28.272,25.876,113.736,104.06,169.152,154.453C136.443,302.671,50.957,383.719,22.46,410.893z"/>
<path style="fill:#FAFAFA;" d="M42.667,426.667c-1.704,0-3.219-0.594-4.81-0.974c29.447-28.072,115.477-109.586,169.742-156.009
	c7.074,6.417,13.536,12.268,18.63,16.858c8.792,7.938,19.083,12.125,29.771,12.125s20.979-4.188,29.76-12.115
	c5.096-4.592,11.563-10.448,18.641-16.868c54.268,46.418,140.286,127.926,169.742,156.009c-1.591,0.38-3.104,0.974-4.81,0.974
	H42.667z"/>
<linearGradient id="SVGID_1_" gradientUnits="userSpaceOnUse" x1="-40.1751" y1="647.2328" x2="-21.961" y2="629.0187" gradientTransform="matrix(21.3333 0 0 -21.3333 996.3334 13791.667)">
	<stop  offset="0" style="stop-color:#000000;stop-opacity:0.2"/>
	<stop  offset="1" style="stop-color:#000000;stop-opacity:0"/>
</linearGradient>
<path style="fill:url(#SVGID_1_);" d="M183.807,262.049c2.663-2.318,5.329-4.642,7.872-6.826
	c-55.417-50.393-140.88-128.577-169.152-154.453L183.807,262.049z M489.473,100.77C461.19,126.655,375.74,204.832,320.322,255.225
	c55.234,47.441,140.711,128.48,169.219,155.668c0.503-1.814,1.126-3.589,1.126-5.56V106.667
	C490.667,104.577,490.036,102.68,489.473,100.77z M285.76,286.552c-8.781,7.927-19.073,12.115-29.76,12.115
	s-20.979-4.188-29.771-12.125c-5.094-4.59-11.556-10.441-18.63-16.858c-2.793,2.389-5.72,4.926-8.669,7.49l149.495,149.493h120.909
	c1.706,0,3.219-0.594,4.81-0.974c-29.456-28.083-115.474-109.591-169.742-156.009C297.323,276.104,290.857,281.96,285.76,286.552z"
	/>
<linearGradient id="SVGID_2_" gradientUnits="userSpaceOnUse" x1="-47.4108" y1="640.4102" x2="-21.9955" y2="628.5585" gradientTransform="matrix(21.3333 0 0 -21.3333 996.3334 13791.667)">
	<stop  offset="0" style="stop-color:#FFFFFF;stop-opacity:0.2"/>
	<stop  offset="1" style="stop-color:#FFFFFF;stop-opacity:0"/>
</linearGradient>
<path style="fill:url(#SVGID_2_);" d="M469.333,64H42.667C19.135,64,0,83.135,0,106.667v298.667C0,428.865,19.135,448,42.667,448
	h426.667C492.865,448,512,428.865,512,405.333V106.667C512,83.135,492.865,64,469.333,64z"/>
<g>
</g>
<g>
</g>
<g>
</g>
<g>
</g>
<g>
</g>
<g>
</g>
<g>
</g>
<g>
</g>
<g>
</g>
<g>
</g>
<g>
</g>
<g>
</g>
<g>
</g>
<g>
</g>
<g>
</g>
</svg>
