<?xml version="1.0" encoding="iso-8859-1"?>
<!-- Generator: Adobe Illustrator 19.0.0, SVG Export Plug-In . SVG Version: 6.00 Build 0)  -->
<svg version="1.1" id="Layer_1" xmlns="http://www.w3.org/2000/svg" xmlns:xlink="http://www.w3.org/1999/xlink" x="0px" y="0px"
	 viewBox="0 0 512.001 512.001" style="enable-background:new 0 0 512.001 512.001;" xml:space="preserve">
<g>
	<g>
		<path d="M507.797,369.349L336.724,234.646c-4.877-3.839-12.081-0.366-12.081,5.864v86.829H204.155
			c-4.123,0-7.464,3.341-7.464,7.464s3.341,7.464,7.464,7.464h127.951c4.123,0,7.464-3.341,7.464-7.464v-78.916l151.363,119.184
			l-152.71,114.532v-75.324c0-4.123-3.341-7.464-7.464-7.464h-172.42c-67.113,0-107.673-39.768-120.413-104.623
			c4.437,3.774,9.82,7.871,16.204,11.958c45.851,29.344,93.546,28.118,120.669,28.118c4.123,0,7.464-3.341,7.464-7.464
			s-3.341-7.464-7.464-7.464c-21.165,0-68.127,2.365-111.948-25.334c-19.828-12.534-28.984-25.257-29.06-25.363
			c-4.23-6.041-13.776-2.891-13.576,4.481c0.038,1.43,1.142,35.401,18.474,69.833c16.256,32.292,50.208,70.786,119.648,70.786
			h164.957v82.787c0,6.143,7.033,9.651,11.942,5.971l172.42-129.315c1.854-1.39,2.958-3.565,2.984-5.883
			C510.669,372.982,509.618,370.783,507.797,369.349z"/>
	</g>
</g>
<g>
	<g>
		<path d="M473.308,161.046c-16.256-32.292-50.209-70.786-119.649-70.786h-19.147c-4.123,0-7.464,3.341-7.464,7.464
			s3.341,7.464,7.464,7.464h19.147c67.116,0,107.674,39.77,120.414,104.623c-32.846-27.933-76.806-40.075-120.414-40.075H179.892
			c-4.123,0-7.464,3.341-7.464,7.464v78.916L21.067,136.932L173.776,22.4v75.324c0,4.123,3.341,7.464,7.464,7.464h124.913
			c4.123,0,7.464-3.341,7.464-7.464s-3.341-7.464-7.464-7.464H188.703V7.473c0-6.135-7.027-9.657-11.942-5.971L4.342,130.818
			c-3.919,2.939-3.987,8.804-0.139,11.835l171.072,134.702c4.891,3.851,12.081,0.351,12.081-5.863v-86.829h166.303
			c45.796,0,77.205,13.778,95.488,25.334c19.828,12.534,28.984,25.257,29.06,25.363c4.227,6.04,13.776,2.891,13.576-4.481
			C491.745,229.449,490.64,195.478,473.308,161.046z"/>
	</g>
</g>
<g>
</g>
<g>
</g>
<g>
</g>
<g>
</g>
<g>
</g>
<g>
</g>
<g>
</g>
<g>
</g>
<g>
</g>
<g>
</g>
<g>
</g>
<g>
</g>
<g>
</g>
<g>
</g>
<g>
</g>
</svg>
