<?xml version="1.0" encoding="iso-8859-1"?>
<!-- Generator: Adobe Illustrator 19.1.0, SVG Export Plug-In . SVG Version: 6.00 Build 0)  -->
<svg version="1.1" id="Capa_1" xmlns="http://www.w3.org/2000/svg" xmlns:xlink="http://www.w3.org/1999/xlink" x="0px" y="0px"
	 viewBox="0 0 63 63" style="enable-background:new 0 0 63 63;" xml:space="preserve">
<g>
	<g id="group-11svg">
		<path id="path-1_1_" d="M63,45.004c0,5.248-4.253,9.503-9.5,9.503h-44c-5.247,0-9.5-4.255-9.5-9.503V9.993
			c0-5.248,4.253-9.503,9.5-9.503h44c5.247,0,9.5,4.255,9.5,9.503V45.004z M60,9.993c0-3.591-2.91-6.502-6.5-6.502h-44
			C5.91,3.492,3,6.403,3,9.993v35.011c0,3.591,2.91,6.502,6.5,6.502h44c3.59,0,6.5-2.911,6.5-6.502V9.993z"/>
		<path id="path-2_1_" d="M41,61.009c0,0.829-0.672,1.5-1.5,1.5h-16c-0.828,0-1.5-0.671-1.5-1.5v-8.002
			c0-0.829,0.672-1.501,1.5-1.501h16c0.828,0,1.5,0.672,1.5,1.501V61.009z M25,59.509h13v-5.002H25V59.509z"/>
		<path id="path-3_1_" d="M47.573,62.509h-33c-0.828,0-1.5-0.672-1.5-1.5s0.672-1.5,1.5-1.5h33c0.828,0,1.5,0.672,1.5,1.5
			S48.401,62.509,47.573,62.509z"/>
		<path id="path-4_1_" d="M14.984,44.806c-0.383,0-0.767-0.147-1.06-0.44c-0.586-0.586-0.586-1.535,0-2.122L46.397,9.76
			c0.586-0.586,1.536-0.586,2.121,0c0.586,0.586,0.586,1.536,0,2.122L16.045,44.365C15.752,44.659,15.368,44.806,14.984,44.806z"/>
		<path id="path-5_1_" d="M32.878,42.818c-0.384,0-0.768-0.147-1.061-0.44c-0.586-0.586-0.586-1.535,0-2.121l9.411-9.414
			c0.586-0.587,1.536-0.587,2.122,0c0.586,0.586,0.586,1.535,0,2.121l-9.412,9.414C33.645,42.67,33.262,42.818,32.878,42.818z"/>
	</g>
</g>
<g>
</g>
<g>
</g>
<g>
</g>
<g>
</g>
<g>
</g>
<g>
</g>
<g>
</g>
<g>
</g>
<g>
</g>
<g>
</g>
<g>
</g>
<g>
</g>
<g>
</g>
<g>
</g>
<g>
</g>
</svg>
