<?xml version="1.0"?>
<svg xmlns="http://www.w3.org/2000/svg" width="512" height="512" viewBox="0 0 512 512"><g><path d="M472,8H40A32.03,32.03,0,0,0,8,40V408a32.03,32.03,0,0,0,32,32h96c.11,0,.21-.01.32-.02a143.876,143.876,0,0,0,239.36,0c.11.01.21.02.32.02h96a32.03,32.03,0,0,0,32-32V40A32.03,32.03,0,0,0,472,8ZM256,488A128,128,0,1,1,384,360,128.144,128.144,0,0,1,256,488Zm232-80a16.021,16.021,0,0,1-16,16H384.97A143.129,143.129,0,0,0,400,360c0-79.4-64.6-144-144-144S112,280.6,112,360a143.129,143.129,0,0,0,15.03,64H40a16.021,16.021,0,0,1-16-16V72H488Zm0-352H24V40A16.021,16.021,0,0,1,40,24H472a16.021,16.021,0,0,1,16,16Z"/><circle cx="39" cy="40" r="8"/><circle cx="64" cy="40" r="8"/><circle cx="88" cy="40" r="8"/><path d="M322.53,335.59l24-8A8,8,0,0,0,352,320V289a8,8,0,0,0-16,0v25.23l-16.61,5.54a55.459,55.459,0,0,0-5.91-17.95,9.954,9.954,0,0,0,.77-.82l12-15a8,8,0,0,0-12.5-10l-10.04,12.56A55.816,55.816,0,0,0,264,272H248a55.859,55.859,0,0,0-39.64,16.48L198.4,275.2a8,8,0,1,0-12.8,9.6l12,16a8.056,8.056,0,0,0,.92,1.01,55.667,55.667,0,0,0-5.91,17.93L177,314.31V288a8,8,0,0,0-16,0v32a8.009,8.009,0,0,0,5.37,7.56l23,8A8.064,8.064,0,0,0,192,336v16H168a8,8,0,0,0,0,16h24v24a7.927,7.927,0,0,0-2.24.32l-24,7A8,8,0,0,0,160,407v24a8,8,0,0,0,16,0V413l18.24-5.32h.01A56.084,56.084,0,0,0,248,448h16a56.093,56.093,0,0,0,53.75-40.32L336,413.77V432a8,8,0,0,0,16,0V408a8,8,0,0,0-5.47-7.59l-24-8A7.973,7.973,0,0,0,320,392V368h24a8,8,0,0,0,0-16H320V336A7.973,7.973,0,0,0,322.53,335.59ZM248,432a40.04,40.04,0,0,1-40-40V344h40Zm56-40a40.04,40.04,0,0,1-40,40V344h40Zm-96-64a40.04,40.04,0,0,1,40-40h16a40.04,40.04,0,0,1,40,40Z"/><path d="M144,80H40a8,8,0,0,0,0,16H144a8,8,0,0,0,0-16Z"/><path d="M72,104H40a8,8,0,0,0,0,16H72a8,8,0,0,0,0-16Z"/><path d="M104,104H96a8,8,0,0,0,0,16h8a8,8,0,0,0,0-16Z"/><path d="M472,400H416a8,8,0,0,0,0,16h56a8,8,0,0,0,0-16Z"/><path d="M472,376H448a8,8,0,0,0,0,16h24a8,8,0,0,0,0-16Z"/><path d="M352,128.07V95.95A8,8,0,0,0,337.75,91l-32,40A8,8,0,0,0,312,144h24v8a8,8,0,0,0,16,0v-8.07a7.992,7.992,0,0,0,0-15.86ZM336,128h-7.35l7.35-9.19Z"/><path d="M456,128.07V95.95A8,8,0,0,0,441.75,91l-32,40A8,8,0,0,0,416,144h24v8a8,8,0,0,0,16,0v-8.07a7.992,7.992,0,0,0,0-15.86ZM440,128h-7.35l7.35-9.19Z"/><path d="M400,88H368a8,8,0,0,0-8,8v56a8,8,0,0,0,8,8h32a8,8,0,0,0,8-8V96A8,8,0,0,0,400,88Zm-8,56H376V104h16Z"/></g></svg>
