<svg id="Capa_1" enable-background="new 0 0 509.019 509.019" height="512" viewBox="0 0 509.019 509.019" width="512" xmlns="http://www.w3.org/2000/svg"><g><path d="m439.69 257.211c.084-.221.181-.435.245-.668.024-.088.038-.177.059-.265 6.334-19.207 9.775-39.717 9.775-61.019 0-40.286-12.17-78.964-35.192-111.852-2.376-3.392-7.051-4.22-10.445-1.843-3.394 2.375-4.219 7.052-1.844 10.445 8.616 12.307 15.584 25.494 20.825 39.303-25.732 10.425-43.105 35.674-43.105 63.947 0 28.251 17.345 53.482 43.041 63.923-25.852 67.934-91.644 116.337-168.539 116.337-76.896 0-142.689-48.405-168.54-116.339 25.918-10.502 43.041-35.642 43.041-63.92 0-28.249-17.35-53.469-43.045-63.909 25.847-67.941 91.643-116.351 168.543-116.351 49.611 0 95.842 19.734 130.175 55.567 2.864 2.991 7.612 3.093 10.603.227s3.093-7.613.227-10.604c-37.188-38.814-87.264-60.19-141.005-60.19-107.666 0-195.259 87.593-195.259 195.259 0 80.534 49.012 149.832 118.771 179.647-6.406 3.001-12.576 6.5-18.449 10.5l-45.867 31.238c-16.944 11.54-27.06 30.668-27.06 51.168v16.128c0 13.829 11.25 25.079 25.079 25.079h41.956c4.142 0 7.5-3.358 7.5-7.5s-3.358-7.5-7.5-7.5h-41.956c-5.558 0-10.079-4.521-10.079-10.079v-16.128c0-15.533 7.665-30.027 20.503-38.771l45.867-31.238c9.702-6.607 20.303-11.704 31.513-15.178 17.448 5.129 35.897 7.894 54.982 7.894 19.091 0 37.544-2.766 54.996-7.898 11.205 3.473 21.801 8.579 31.498 15.182l45.867 31.238c12.838 8.744 20.503 23.238 20.503 38.771v16.128c0 5.557-4.521 10.079-10.078 10.079h-213.617c-4.142 0-7.5 3.358-7.5 7.5s3.358 7.5 7.5 7.5h213.617c13.828 0 25.078-11.25 25.078-25.079v-16.128c0-20.501-10.115-39.629-27.06-51.168l-45.867-31.238c-5.873-3.999-12.046-7.496-18.453-10.498 51.012-21.801 90.925-64.714 108.696-117.697zm-44.683-61.952c0-21.798 13.195-41.299 32.837-49.673 4.573 16.002 6.925 32.681 6.925 49.673 0 17.217-2.431 33.877-6.959 49.658-19.623-8.382-32.803-27.872-32.803-49.658zm-313.802-49.646c19.622 8.382 32.805 27.861 32.805 49.646 0 21.81-13.01 41.241-32.799 49.666-4.53-15.783-6.962-32.446-6.962-49.666 0-17.213 2.429-33.868 6.956-49.646z"/><path d="m190.98 195.259c0 35.03 28.499 63.529 63.529 63.529 35.029 0 63.528-28.499 63.528-63.529s-28.499-63.528-63.528-63.528-63.529 28.499-63.529 63.528zm112.058 0c0 26.759-21.77 48.529-48.528 48.529s-48.529-21.77-48.529-48.529 21.77-48.528 48.529-48.528 48.528 21.77 48.528 48.528z"/><path d="m224.958 195.259c0 16.294 13.256 29.551 29.551 29.551 16.294 0 29.551-13.256 29.551-29.551 0-16.294-13.257-29.55-29.551-29.55s-29.551 13.256-29.551 29.55zm44.102 0c0 8.023-6.527 14.551-14.551 14.551-8.023 0-14.551-6.527-14.551-14.551 0-8.023 6.527-14.55 14.551-14.55s14.551 6.527 14.551 14.55z"/><path d="m147.082 195.259c0 59.236 48.192 107.428 107.428 107.428s107.428-48.192 107.428-107.428-48.192-107.427-107.429-107.427c-59.236 0-107.427 48.191-107.427 107.427zm199.855 0c0 50.965-41.463 92.428-92.428 92.428s-92.428-41.463-92.428-92.428c0-50.964 41.463-92.427 92.428-92.427s92.428 41.463 92.428 92.427z"/><path d="m320.466 472.146c11.766 0 21.337-9.572 21.337-21.337v-16.476c0-11.765-9.571-21.337-21.337-21.337h-132.266c-11.765 0-21.336 9.572-21.336 21.337v16.476c0 11.765 9.571 21.337 21.336 21.337zm-138.603-21.337v-16.476c0-3.494 2.842-6.337 6.336-6.337h132.267c3.494 0 6.337 2.843 6.337 6.337v16.476c0 3.494-2.843 6.337-6.337 6.337h-132.266c-3.494 0-6.337-2.843-6.337-6.337z"/></g></svg>