<svg height="503pt" viewBox="-16 0 503 503.87524" width="503pt" xmlns="http://www.w3.org/2000/svg"><path d="m470.492188 308.585938v-247.320313c.578124-14.511719-10.671876-26.765625-25.179688-27.421875h-111.566406l-5.726563-21.394531c-1.957031-7.324219-8.582031-12.4257815-16.164062-12.449219h-.175781l-15.773438.160156c-5.007812.050782-9.734375 2.339844-12.882812 6.234375-3.148438 3.898438-4.394532 9-3.390626 13.910157l2.738282 13.539062h-21.714844v-16.789062c0-9.269532-7.515625-16.785157-16.789062-16.785157h-16.785157c-9.269531 0-16.785156 7.515625-16.785156 16.785157v16.789062h-21.65625l2.695313-13.488281c.988281-4.933594-.289063-10.050781-3.476563-13.941407-3.1875-3.890624-7.953125-6.144531-12.984375-6.144531h-15.710938c-7.601562 0-14.253906 5.105469-16.21875 12.445313l-5.671874 21.128906h-111.632813c-14.507813.65625-25.761719 12.910156-25.183594 27.421875v247.320313c-.578125 14.507812 10.675781 26.761718 25.183594 27.421874h30.902344l-36.46875 147.042969c-1.242188 5.011719-.109375 10.316407 3.074219 14.382813 3.179687 4.066406 8.054687 6.441406 13.21875 6.441406h16.199218c7.796875.027344 14.578125-5.34375 16.339844-12.941406l12.734375-54.207032h128.65625v50.363282c0 9.269531 7.515625 16.785156 16.785156 16.785156h16.785157c9.273437 0 16.789062-7.515625 16.789062-16.785156v-50.363282h128.730469l12.664062 54.1875c1.757813 7.605469 8.539063 12.984376 16.34375 12.960938h16.199219c5.160156 0 10.035156-2.371094 13.214844-6.433594 3.183594-4.0625 4.320312-9.363281 3.085937-14.375l-36.328125-147.058594h30.746094c14.507812-.660156 25.757812-12.914062 25.179688-27.421874zm-174.417969-291.640626 15.730469-.160156 4.558593 17.058594h-16.863281zm-68.992188.109376h16.785157v16.789062h-16.785157zm-67.917969 0h15.710938l-3.359375 16.789062h-16.851563zm-141.917968 291.53125v-247.320313c-.472656-5.214844 3.214844-9.886719 8.394531-10.636719h419.671875c5.179688.75 8.867188 5.421875 8.390625 10.636719v247.320313c.476563 5.210937-3.210937 9.882812-8.390625 10.632812h-419.671875c-5.179687-.75-8.867187-5.421875-8.394531-10.632812zm358.878906 77.78125h-115.46875v-50.359376h101.996094zm-267.75-50.359376h101.921875v50.359376h-115.394531zm326.242188 151.082032h-16.222657l-12.667969-54.191406c-1.753906-7.601563-8.535156-12.980469-16.339843-12.957032h-128.730469c-9.273438 0-16.789062 7.515625-16.789062 16.785156v50.363282h-16.785157v-50.363282c0-9.269531-7.515625-16.785156-16.785156-16.785156h-128.65625c-7.796875-.023437-14.578125 5.347656-16.34375 12.941406l-12.730469 54.207032h-16.199218l37.46875-151.082032h17.164062l-12.304688 46.019532c-1.347656 5.039062-.277343 10.417968 2.894532 14.558594 3.175781 4.136718 8.097656 6.566406 13.3125 6.566406h115.394531c9.269531 0 16.785156-7.515625 16.785156-16.785156v-50.359376h16.785157v50.359376c0 9.269531 7.515624 16.785156 16.789062 16.785156h115.46875c5.21875 0 10.136719-2.425782 13.316406-6.5625 3.175782-4.140625 4.246094-9.523438 2.898438-14.5625l-12.304688-46.019532h17.242188zm0 0"/><path d="m59.214844 285.644531h-16.789063c-4.636719 0-8.394531 3.757813-8.394531 8.394531 0 4.636719 3.757812 8.394532 8.394531 8.394532h16.789063c4.632812 0 8.390625-3.757813 8.390625-8.394532 0-4.636718-3.757813-8.394531-8.390625-8.394531zm0 0"/><path d="m428.523438 285.644531h-335.738282c-4.632812 0-8.390625 3.757813-8.390625 8.394531 0 4.636719 3.757813 8.394532 8.390625 8.394532h335.738282c4.636718 0 8.394531-3.757813 8.394531-8.394532 0-4.636718-3.757813-8.394531-8.394531-8.394531zm0 0"/><path d="m411.738281 84.203125h16.785157c4.636718 0 8.394531-3.757813 8.394531-8.394531 0-4.632813-3.757813-8.390625-8.394531-8.390625h-16.785157c-4.636719 0-8.394531 3.757812-8.394531 8.390625 0 4.636718 3.757812 8.394531 8.394531 8.394531zm0 0"/><path d="m42.425781 84.203125h335.738281c4.636719 0 8.394532-3.757813 8.394532-8.394531 0-4.632813-3.757813-8.390625-8.394532-8.390625h-335.738281c-4.636719 0-8.394531 3.757812-8.394531 8.390625 0 4.636718 3.757812 8.394531 8.394531 8.394531zm0 0"/></svg>