<svg id="_x31_" enable-background="new 0 0 24 24" height="512" viewBox="0 0 24 24" width="512" xmlns="http://www.w3.org/2000/svg"><path d="m21.5 21h-19c-1.379 0-2.5-1.121-2.5-2.5v-13c0-1.379 1.121-2.5 2.5-2.5h5.5c.133 0 .26.053.354.146l1.853 1.854h11.293c1.379 0 2.5 1.121 2.5 2.5v11c0 1.379-1.121 2.5-2.5 2.5zm-19-17c-.827 0-1.5.673-1.5 1.5v13c0 .827.673 1.5 1.5 1.5h19c.827 0 1.5-.673 1.5-1.5v-11c0-.827-.673-1.5-1.5-1.5h-11.5c-.133 0-.26-.053-.354-.146l-1.853-1.854z"/><path d="m14.5 16c-.276 0-.5-.224-.5-.5v-5c0-.276.224-.5.5-.5h1.5c1.103 0 2 .897 2 2s-.897 2-2 2h-1v1.5c0 .276-.224.5-.5.5zm.5-3h1c.552 0 1-.448 1-1s-.448-1-1-1h-1z"/><path d="m11.5 16c-.276 0-.5-.224-.5-.5v-5c0-.276.224-.5.5-.5s.5.224.5.5v5c0 .276-.224.5-.5.5z"/><path d="m8.5 16h-3c-.18 0-.347-.097-.436-.254-.088-.156-.086-.349.007-.503l2.546-4.243h-2.117c-.276 0-.5-.224-.5-.5s.224-.5.5-.5h3c.18 0 .347.097.436.254.088.156.086.349-.007.503l-2.546 4.243h2.117c.276 0 .5.224.5.5s-.224.5-.5.5z"/></svg>